<?xml version="1.0" encoding="iso-8859-1"?>
<!-- Generator: Adobe Illustrator 19.0.0, SVG Export Plug-In . SVG Version: 6.00 Build 0)  -->
<svg version="1.1" id="Layer_1" xmlns="http://www.w3.org/2000/svg" xmlns:xlink="http://www.w3.org/1999/xlink" x="0px" y="0px"
	 viewBox="0 0 512 512" style="enable-background:new 0 0 512 512;" xml:space="preserve">
<circle style="fill:#E5AB46;" cx="108.533" cy="88.645" r="75.471"/>
<circle style="fill:#FED771;" cx="108.533" cy="88.645" r="59.33"/>
<g>
	<path style="fill:#99DAEA;" d="M478.759,98.674c9.613-10.456,5.859-19.01-8.345-19.01H99.555c-14.204,0-17.958,8.554-8.344,19.01
		l176.292,191.69c9.613,10.456,25.349,10.456,34.965,0L478.759,98.674z"/>
	<rect x="264.101" y="273.588" style="fill:#99DAEA;" width="41.768" height="205.583"/>
</g>
<g>
	<path style="fill:#6FD1E6;" d="M321.235,473.262c8.484,0,15.361,6.879,15.361,15.363s-6.877,15.362-15.361,15.362h-72.499
		c-8.482,0-15.361-6.878-15.361-15.362c0-8.484,6.878-15.363,15.361-15.363H321.235z"/>
	
		<rect x="392.321" y="-2.701" transform="matrix(-0.7361 -0.6769 0.6769 -0.7361 636.7108 435.1981)" style="fill:#6FD1E6;" width="21.749" height="192.351"/>
</g>
<path style="fill:#A13838;" d="M165.951,134.043l103.261,112.279c8.674,9.435,22.871,9.435,31.548,0l103.253-112.279
	C404.013,134.043,165.951,134.043,165.951,134.043z"/>
<polygon style="opacity:0.5;fill:#C4E9F2;enable-background:new    ;" points="290.139,79.663 177.405,192.396 212.34,230.382 
	363.057,79.663 "/>
<path style="fill:#1E252B;" d="M484.658,104.096c9.355-10.175,7.898-18.195,6.197-22.07c-1.702-3.875-6.618-10.375-20.44-10.375
	h-21.502l33.284-36.193c1.439-1.564,2.197-3.635,2.108-5.759c-0.089-2.123-1.017-4.123-2.581-5.562l-16.008-14.72
	c-3.26-2.996-8.327-2.783-11.321,0.474l-56.797,61.76H195.535C187.554,30.335,151.357,0,108.538,0
	c-48.88,0-88.646,39.766-88.646,88.645s39.767,88.645,88.646,88.645c0.001,0,0.001,0,0.003,0c12.693,0,25.278-2.746,36.754-7.971
	l110.793,120.47V465.25h-7.353c-12.887,0-23.373,10.486-23.373,23.375c0,12.888,10.485,23.374,23.373,23.374h72.499
	c12.887,0,23.373-10.486,23.373-23.374c0-12.889-10.486-23.375-23.373-23.375h-7.351V289.784L484.658,104.096z M460.767,26.634
	l4.213,3.875l-37.836,41.142h-7.777L460.767,26.634z M404.632,87.675h7.777l-35.274,38.356h-7.778L404.632,87.675z M385.762,142.055
	l-90.899,98.843c-2.661,2.894-6.169,4.488-9.878,4.488c-3.709,0-7.215-1.594-9.876-4.488l-90.905-98.843L385.762,142.055
	L385.762,142.055z M108.541,161.266h-0.003c-40.044,0-72.622-32.578-72.622-72.621c0-40.043,32.578-72.621,72.622-72.621
	c34.016,0,62.926,23.361,70.612,55.628h-13.122c-7.404-25.248-30.584-42.95-57.489-42.95c-33.052,0-59.943,26.89-59.943,59.942
	c0,33.051,26.891,59.94,59.943,59.94c5.367,0,10.647-0.706,15.761-2.098l9.444,10.269
	C125.716,159.718,117.161,161.266,108.541,161.266z M85.314,104.097l26.084,28.362c-0.951,0.061-1.901,0.103-2.861,0.103
	c-24.218,0-43.92-19.701-43.92-43.917c0-24.217,19.702-43.919,43.92-43.919c18.064,0,33.843,10.88,40.53,26.926H99.555
	c-13.821,0-18.738,6.5-20.44,10.375C77.413,85.902,75.957,93.921,85.314,104.097z M321.235,481.274c4.053,0,7.35,3.298,7.35,7.352
	c0,4.053-3.297,7.351-7.35,7.351h-72.499c-4.053,0-7.35-3.298-7.35-7.351s3.297-7.352,7.35-7.352H321.235z M299.975,281.237
	c-1.359,1.478-2.114,3.414-2.114,5.423v178.59h-25.75V286.665c0-2.009-0.755-3.945-2.115-5.423L97.108,93.251
	C94.93,90.882,94.226,89.305,94,88.56c0.701-0.337,2.337-0.886,5.555-0.886h283.307l-35.274,38.356H165.951
	c-3.18,0-6.058,1.88-7.336,4.792c-1.278,2.911-0.714,6.303,1.439,8.643l103.26,112.278c5.73,6.233,13.427,9.665,21.671,9.665
	c8.244,0,15.94-3.432,21.672-9.664l103.253-112.28c2.153-2.341,2.717-5.732,1.439-8.643c-1.278-2.911-4.157-4.791-7.336-4.791h-5.11
	l35.274-38.356h36.238c3.219,0,4.855,0.549,5.556,0.886c-0.226,0.743-0.93,2.32-3.109,4.69L299.975,281.237z"/>
<g>
</g>
<g>
</g>
<g>
</g>
<g>
</g>
<g>
</g>
<g>
</g>
<g>
</g>
<g>
</g>
<g>
</g>
<g>
</g>
<g>
</g>
<g>
</g>
<g>
</g>
<g>
</g>
<g>
</g>
</svg>
